<svg xmlns="http://www.w3.org/2000/svg" width="18" height="18" aria-label="Instagram icon" viewBox="0 0 18 18"><path fill-rule="evenodd" d="M9.94 1c1.34 0 1.64.02 2.35.05.86.04 1.44.18 1.95.37.52.2.97.48 1.41.93.45.44.72.89.93 1.41.2.51.33 1.1.37 1.95.03.74.04 1.04.04 2.56v1.46c0 1.52 0 1.82-.04 2.57a5.87 5.87 0 0 1-.37 1.94c-.2.53-.48.97-.93 1.42a3.9 3.9 0 0 1-1.41.92c-.51.2-1.1.33-1.95.37-.74.04-1.04.05-2.56.05H8.27c-1.52 0-1.82-.01-2.57-.05a5.87 5.87 0 0 1-1.94-.37 3.94 3.94 0 0 1-2.34-2.34 5.8 5.8 0 0 1-.37-1.94A42.4 42.4 0 0 1 1 9.94V8.06c0-1.34.02-1.64.05-2.35.04-.86.17-1.44.37-1.95a4.06 4.06 0 0 1 2.34-2.34 5.8 5.8 0 0 1 1.94-.37 42.4 42.4 0 0 1 2.36-.04zm-.45 1.45H8.5c-1.68 0-1.96 0-2.73.04-.78.04-1.2.17-1.49.28-.37.14-.64.32-.92.6-.28.28-.45.54-.6.92-.1.28-.24.7-.27 1.48a47.4 47.4 0 0 0-.05 2.74v.99c0 1.68.01 1.96.05 2.73.03.78.16 1.2.27 1.49.15.37.32.64.6.92.28.28.55.45.92.6.28.1.7.24 1.49.27.73.04 1.02.05 2.51.05h1.43c1.5 0 1.78-.01 2.52-.05.78-.03 1.2-.16 1.48-.27.38-.15.64-.32.92-.6.28-.28.46-.55.6-.92.11-.28.24-.7.28-1.49.03-.73.04-1.02.04-2.51V8.29c0-1.5 0-1.78-.04-2.52a4.42 4.42 0 0 0-.28-1.48 2.48 2.48 0 0 0-.6-.92 2.48 2.48 0 0 0-.92-.6c-.28-.11-.7-.24-1.48-.28a47.4 47.4 0 0 0-2.74-.04zM9 4.9a4.1 4.1 0 1 1 0 8.2 4.1 4.1 0 0 1 0-8.2zm0 1.44a2.67 2.67 0 1 0 0 5.33 2.67 2.67 0 0 0 0-5.33zm4.28-2.57a.96.96 0 1 1 0 1.92.96.96 0 0 1 0-1.92z"></path></svg>