<svg xmlns="http://www.w3.org/2000/svg" width="18" height="18" aria-label="Twitter icon" viewBox="0 0 18 18"><path fill-rule="evenodd" d="M12.46 1.13c-2.04 0-3.7 1.78-3.7 3.97 0 .31.04.62.1.9a10.26 10.26 0 0 1-7.6-4.15A4.2 4.2 0 0 0 2.4 7.16a3.5 3.5 0 0 1-1.68-.5v.05a3.92 3.92 0 0 0 2.97 3.9 3.45 3.45 0 0 1-1.67.07 3.74 3.74 0 0 0 3.45 2.76A7.08 7.08 0 0 1 0 15.1a9.92 9.92 0 0 0 5.66 1.79c6.8 0 10.5-6.06 10.5-11.32v-.51A7.85 7.85 0 0 0 18 2.99c-.66.32-1.37.53-2.12.63a3.95 3.95 0 0 0 1.62-2.2c-.71.45-1.5.78-2.34.96a3.57 3.57 0 0 0-2.7-1.25"></path></svg>